<svg xmlns="http://www.w3.org/2000/svg" width="95" height="26"><g fill="none" fill-rule="evenodd"><path fill="#00548F" d="M31.112 8.08V5.1h15.127v2.98h-5.28v12.571h-3.656V8.081z"/><path fill="#EA862D" d="M13.213 7.019l17.722-4.55 4.754 16.995-2.525.647-6.423-14.884h-3.915l-6.136 14.22-3.477-12.428zm18.353 13.503l-13.6 3.492-.975-3.492h3.218l1.543-3.54h6.063l1.542 3.54h2.209zM24.79 8.902l2.265 5.356h-4.543l2.278-5.356z"/><path fill="#00548F" d="M8.295 17.672c.608 0 1.002-.042 1.202-.114.738-.271 1.106-.81 1.106-1.65 0-1.345-1.106-1.542-2.238-1.542H3.802v3.306h4.493zm0-6.285c.608 0 1.002-.042 1.202-.115.738-.27 1.106-.81 1.106-1.651 0-1.343-1.106-1.541-2.238-1.541H3.802v3.307h4.493zM.146 5.1H9.3c1.422 0 2.477.154 3.145.474.77.374 1.356.992 1.756 1.844.28.597.42 1.205.42 1.821 0 1.078-.378 2.034-1.13 2.864a3.58 3.58 0 0 1-1.021.78c1.426.721 2.14 1.926 2.14 3.595 0 1.128-.298 2.056-.906 2.77-.626.74-1.53 1.175-2.692 1.312-.503.061-1.14.091-1.91.091H.145V5.101zM48.55 20.651h3.655V5.101H48.55zm37.007-3.9L89.64 5.1h5.183v15.55H91.32V9.795l-3.943 10.856h-3.685L79.984 9.838V20.65h-3.502V5.101h5.196zm-22.256.921h3.773v2.98h-4.56c-4.42-.063-7.985-3.522-7.985-7.775 0-4.255 3.564-7.711 7.986-7.771l4.56-.003V8.08H63.3c-2.727.04-4.923 2.172-4.923 4.796 0 2.625 2.196 4.756 4.923 4.796m-2.267 7.349h3.655v-3.488h-3.655zm8.71-4.37h3.655V5.101h-3.655zm0-16.615h3.655V.55h-3.655z"/></g></svg>